<svg width="349" height="271" viewBox="0 0 349 271" fill="none" xmlns="http://www.w3.org/2000/svg">
<g clip-path="url(#clip0_14_758)">
<path d="M250.033 240.863C279.714 243.018 316.818 230.821 333.186 204.05C339.967 192.963 344.467 178.718 339.746 166.467C336.172 157.181 321.059 146.681 317.793 137.26C314.484 127.709 314.953 116.951 316.656 106.905C321.507 78.0477 294.396 32.9944 237.086 28.2136C193.628 24.5432 173.961 59.5876 136.987 64.3576C99.6628 69.2084 55.8976 40.2275 29.1912 64.3576C-3.96141 94.3356 11.5935 124.335 15.6305 138.376C20.8155 156.41 -4.52195 176.988 0.700764 203.538C12.3858 262.901 97.3021 222.871 122.187 220.365C147.465 217.816 172.549 225.281 197.32 231.274C222.092 237.268 250.033 240.863 250.033 240.863Z" fill="#DAF3F7"/>
<path d="M15.2964 72.8085L14.5095 72.539C14.5958 72.3126 23.1332 49.7294 47.5975 49.2174V50.0258C23.6937 50.5271 15.3773 72.5875 15.2964 72.8085Z" fill="#DAF3F7"/>
<path d="M347.512 187.622L346.715 187.401C353.921 163.282 331.914 146.293 331.693 146.126L332.232 145.49C332.421 145.663 354.88 162.991 347.512 187.622Z" fill="#DAF3F7"/>
<path d="M96.1163 71.6984C96.1163 71.8978 96.0786 72.0865 96.0624 72.2859C93.6532 96.2759 94.8336 115.194 97.965 130.113L109.823 138.683L99.7436 136.392L99.4526 136.327C103.861 152.766 110.771 163.67 117.535 170.822C120.983 174.54 124.947 177.742 129.307 180.33C129.528 180.464 129.754 180.594 129.975 180.718C130.514 181.036 131.053 181.316 131.592 181.58L138.388 182.394C138.502 182.087 138.615 181.78 138.723 181.467C138.793 181.273 138.863 181.079 138.922 180.88C138.981 180.68 139.105 180.341 139.186 180.109C149.427 149.635 140.992 124.168 128.946 105.595C128.913 105.536 128.87 105.476 128.827 105.412C124.922 99.4443 120.496 93.835 115.6 88.6493L112.054 96.1142L112.372 85.3346C107.478 80.4153 102.161 75.9353 96.4828 71.9464L96.1163 71.6984Z" fill="#20A090"/>
<path d="M96.8773 71.8052L96.1221 72.0936L137.755 181.12L138.511 180.832L96.8773 71.8052Z" fill="white"/>
<path d="M68.5852 143.42L68.8439 143.754C79.3971 157.482 89.3251 166.807 98.283 173.048L108.701 171.706L102.298 175.479L102.12 175.587C112.507 182.022 121.491 184.323 128.557 184.749C132.189 184.998 135.837 184.724 139.391 183.935C139.574 183.892 139.757 183.854 139.93 183.806C140.372 183.698 140.792 183.585 141.191 183.472L145.153 180.567C145.061 180.346 144.969 180.13 144.867 179.915C144.765 179.699 144.748 179.645 144.689 179.51L144.447 178.971C134.804 157.994 117.869 148.815 102.444 145.016L102.288 144.978C97.311 143.774 92.2372 143.017 87.1261 142.714L88.9371 148.363L83.806 142.569C78.8243 142.401 73.8375 142.671 68.9032 143.377L68.5852 143.42Z" fill="#20A090"/>
<path d="M69.0992 143.018L68.7341 143.739L145.584 182.626L145.949 181.905L69.0992 143.018Z" fill="white"/>
<path d="M301.424 0.488235V0.967927C301.365 20.6622 298.853 35.9315 295.053 47.7675L284.71 53.7448L293.092 52.7207H293.329C288.386 65.7101 281.859 73.9889 275.774 79.2601C272.663 81.9912 269.176 84.2619 265.42 86.0027L264.844 86.2668C264.369 86.477 263.906 86.6603 263.469 86.8327L257.885 86.9405C257.815 86.6818 257.751 86.4016 257.691 86.159C257.648 85.9973 257.611 85.8302 257.578 85.6685C257.546 85.5068 257.476 85.232 257.427 85.0164C251.655 59.4095 260.613 39.4241 271.926 25.3352C271.957 25.285 271.993 25.238 272.034 25.195C275.702 20.671 279.763 16.4811 284.171 12.6746L286.435 19.0345L287.071 10.2492C291.452 6.65808 296.142 3.46033 301.085 0.693048L301.424 0.488235Z" fill="#24786D"/>
<path d="M300.718 0.470008L257.85 85.5928L258.572 85.9564L301.44 0.833647L300.718 0.470008Z" fill="white"/>
<path d="M141.304 269.197H258.925C260.734 269.224 262.48 268.532 263.779 267.273C265.077 266.013 265.823 264.29 265.851 262.481V28.9681C265.823 27.1592 265.077 25.4357 263.779 24.1764C262.48 22.917 260.734 22.225 258.925 22.2524H141.304C139.494 22.225 137.748 22.9169 136.449 24.176C135.149 25.4352 134.402 27.1587 134.373 28.9681V262.481C134.402 264.29 135.149 266.014 136.449 267.273C137.748 268.532 139.494 269.224 141.304 269.197Z" fill="#24786D"/>
<path d="M263.857 45.7463V63.2793C263.856 63.6239 263.719 63.954 263.476 64.1982C263.232 64.4423 262.903 64.5808 262.558 64.5836H262.445V263.004C262.413 264.811 261.665 266.532 260.365 267.789C259.066 269.045 257.321 269.736 255.514 269.708H137.898C137.001 269.722 136.11 269.559 135.277 269.228C134.443 268.897 133.682 268.406 133.039 267.781C132.395 267.156 131.881 266.411 131.525 265.588C131.17 264.764 130.98 263.879 130.967 262.982V111.248H130.799C130.455 111.246 130.126 111.107 129.884 110.863C129.642 110.618 129.506 110.288 129.506 109.944V92.4381C129.506 92.0945 129.642 91.765 129.884 91.5215C130.127 91.2781 130.456 91.1406 130.799 91.1392H130.967V85.0864H130.799C130.455 85.0836 130.126 84.9449 129.884 84.7006C129.642 84.4563 129.506 84.1262 129.506 83.7821V66.2814C129.506 65.9379 129.642 65.6083 129.884 65.3648C130.127 65.1214 130.456 64.9839 130.799 64.9825H130.967V28.9355C130.995 27.1248 131.741 25.3994 133.04 24.1382C134.34 22.877 136.087 22.1831 137.898 22.2091H255.514C257.325 22.1831 259.072 22.877 260.371 24.1382C261.671 25.3994 262.417 27.1248 262.445 28.9355V44.4528H262.558C262.902 44.4528 263.231 44.5889 263.475 44.8313C263.718 45.0737 263.856 45.4027 263.857 45.7463Z" fill="#8ECBD8"/>
<path d="M137.898 22.2525H187.683V23.3304H137.898C136.232 23.3045 134.624 23.94 133.425 25.0978C132.227 26.2556 131.537 27.8412 131.506 29.5071V66.0014H130.8C130.599 66.0029 130.407 66.0836 130.266 66.2259C130.124 66.3683 130.045 66.5608 130.045 66.7614V84.219C130.045 84.4196 130.124 84.6121 130.266 84.7544C130.407 84.8968 130.599 84.9775 130.8 84.9789H131.506V92.0988H130.8C130.599 92.0988 130.408 92.1783 130.266 92.3198C130.125 92.4614 130.045 92.6533 130.045 92.8534V110.316C130.046 110.517 130.126 110.708 130.267 110.85C130.408 110.992 130.599 111.073 130.8 111.076H131.506V163.557H130.428V112.117C130.015 112.029 129.645 111.802 129.379 111.475C129.113 111.147 128.968 110.738 128.967 110.316V92.8534C128.968 92.4322 129.114 92.024 129.379 91.6973C129.645 91.3705 130.015 91.1451 130.428 91.0586V86.0191C130.015 85.9316 129.645 85.705 129.379 85.3774C129.113 85.0498 128.968 84.6409 128.967 84.219V66.7614C128.968 66.3395 129.113 65.9306 129.379 65.603C129.645 65.2753 130.015 65.0488 130.428 64.9612V29.5071C130.459 27.5554 131.263 25.6956 132.663 24.3356C134.064 22.9757 135.946 22.2265 137.898 22.2525Z" fill="#24786D"/>
<path d="M264.397 46.2748V63.7377C264.396 64.1511 264.257 64.5524 264.001 64.8769C263.744 65.2014 263.387 65.4304 262.985 65.5271V140.246H261.907V64.4977H262.559C262.76 64.4977 262.954 64.4176 263.096 64.2751C263.239 64.1326 263.319 63.9393 263.319 63.7377V46.2748C263.317 46.0742 263.237 45.8823 263.094 45.7409C262.952 45.5996 262.76 45.5202 262.559 45.5202H261.907V29.5071C261.876 27.8422 261.186 26.2574 259.989 25.0998C258.792 23.9421 257.185 23.3059 255.52 23.3304H249.305V22.2525H255.52C257.471 22.2266 259.353 22.9759 260.753 24.336C262.152 25.6961 262.955 27.5558 262.985 29.5071V44.4908C263.386 44.5873 263.743 44.8155 263.999 45.1389C264.255 45.4623 264.395 45.8623 264.397 46.2748Z" fill="#20A090"/>
<path d="M255.514 270.248H137.898C135.946 270.275 134.064 269.527 132.663 268.168C131.263 266.809 130.459 264.95 130.427 262.998V220.516H131.505V263.02C131.544 264.681 132.237 266.26 133.435 267.412C134.632 268.564 136.236 269.196 137.898 269.17H255.514C257.179 269.196 258.786 268.561 259.985 267.404C261.183 266.248 261.874 264.663 261.906 262.998V174.185H262.984V263.02C262.947 264.967 262.141 266.821 260.741 268.176C259.341 269.53 257.462 270.275 255.514 270.248Z" fill="#20A090"/>
<path d="M257.443 33.6355V256.708C257.443 258.409 256.768 260.041 255.565 261.244C254.362 262.446 252.731 263.122 251.03 263.122H142.113C140.411 263.121 138.779 262.444 137.575 261.24C136.372 260.037 135.695 258.405 135.693 256.703V33.6032C135.691 32.7596 135.854 31.9237 136.175 31.1434C136.496 30.3631 136.967 29.6537 137.562 29.0559C138.158 28.4581 138.865 27.9836 139.644 27.6596C140.423 27.3356 141.258 27.1685 142.102 27.1678H173.902C174.144 27.1671 174.384 27.2142 174.609 27.3066C174.833 27.3989 175.037 27.5345 175.209 27.7058C175.38 27.877 175.517 28.0805 175.61 28.3045C175.702 28.5284 175.75 28.7686 175.75 29.0111V32.0186C175.752 32.6586 176.007 33.2719 176.459 33.7244C176.912 34.177 177.525 34.4318 178.165 34.4332H214.977C215.617 34.4304 216.229 34.1751 216.682 33.7229C217.134 33.2707 217.389 32.6581 217.392 32.0186V29.0165C217.391 28.774 217.438 28.5337 217.531 28.3094C217.623 28.0852 217.759 27.8813 217.93 27.7096C218.101 27.5379 218.305 27.4016 218.529 27.3086C218.753 27.2156 218.993 27.1678 219.235 27.1678H251.035C251.881 27.1692 252.719 27.3379 253.499 27.6641C254.28 27.9904 254.989 28.4678 255.584 29.0689C256.18 29.67 256.651 30.3829 256.97 31.1666C257.289 31.9503 257.45 32.7894 257.443 33.6355Z" fill="white"/>
<path d="M181.134 29.5931C181.748 29.5931 182.245 29.096 182.245 28.4828C182.245 27.8696 181.748 27.3725 181.134 27.3725C180.521 27.3725 180.024 27.8696 180.024 28.4828C180.024 29.096 180.521 29.5931 181.134 29.5931Z" fill="#24786D"/>
<path d="M213.387 29.0973H187.92C187.757 29.0973 187.601 29.0326 187.486 28.9174C187.371 28.8021 187.306 28.6459 187.306 28.4829C187.306 28.3199 187.371 28.1637 187.486 28.0484C187.601 27.9332 187.757 27.8685 187.92 27.8685H213.387C213.55 27.8685 213.706 27.9332 213.822 28.0484C213.937 28.1637 214.002 28.3199 214.002 28.4829C214.002 28.6459 213.937 28.8021 213.822 28.9174C213.706 29.0326 213.55 29.0973 213.387 29.0973Z" fill="#20A090"/>
<path d="M93.0739 85.5264L89.0553 84.1857C88.5922 84.0312 88.0916 84.2814 87.9371 84.7445L83.4373 98.2319C83.2828 98.695 83.533 99.1957 83.996 99.3502L88.0147 100.691C88.4778 100.845 88.9784 100.595 89.1329 100.132L93.6327 86.6447C93.7872 86.1816 93.537 85.6809 93.0739 85.5264Z" fill="#5E3B3B"/>
<path d="M90.4191 106.242C90.2732 105.209 90.3523 104.158 90.6508 103.159C91.1898 101.736 92.5103 97.8174 92.6181 96.6909C92.6936 95.8932 89.8693 91.6838 89.1956 92.0018C88.5219 92.3198 90.9149 95.7746 90.694 95.8986C90.6293 95.9309 88.1015 92.6917 87.4978 93.2522C86.8941 93.8127 89.8747 96.7286 89.6968 96.8526C89.6376 96.8957 88.6782 95.904 88.0098 95.5806C87.6218 95.3919 86.0264 95.3111 85.9617 95.6507C85.8431 96.2597 87.2175 96.3567 87.7188 96.5831C88.0623 96.9356 88.376 97.316 88.6566 97.7203C88.4841 97.8389 87.708 97.0736 86.9912 96.9173C86.5438 96.8095 85.0347 96.9173 85.0077 97.3808C84.9808 97.8443 86.6247 97.7742 86.6732 97.8012C87.0471 98.0775 87.4069 98.3725 87.7511 98.6851C86.981 99.4975 86.261 100.356 85.5952 101.256C85.3619 101.662 85.2672 102.133 85.3255 102.598C85.3839 103.063 85.5921 103.496 85.9186 103.832L83.698 110.634L90.8125 113.647C90.6724 110.828 90.4945 108.236 90.4191 106.242Z" fill="#FFB284"/>
<path d="M61.751 77.4974C61.751 77.4974 67.6204 67.1921 58.8836 66.0387C58.8836 66.0387 57.6062 59.5117 46.9937 65.5644C46.9937 65.5644 38.0305 63.6187 41.9165 78.4999C41.4314 81.6799 41.2051 85.442 44.7839 85.4635L61.751 77.4974Z" fill="#20A090"/>
<path d="M43.3771 93.5051L45.4738 80.6289L55.0137 85.9163L56 93.7531L60.549 95.4347C57.5092 99.5471 45.7972 100.383 40.5098 94.3998L43.3771 93.5051Z" fill="#FFB284"/>
<path d="M46.0505 78.624C46.0505 78.624 44.9186 72.1994 48.6106 70.0003C52.3026 67.8013 59.6759 67.5588 61.2659 72.5767C62.166 75.4225 61.6485 83.1083 61.0503 86.1967C60.5113 88.9616 58.4362 91.0798 55.6982 91.1283C49.1766 91.2415 46.3954 83.0436 46.3954 83.0436L46.0505 78.624Z" fill="#FFB284"/>
<path d="M66.8818 262.187L75.8638 261.225L74.538 248.84L65.556 249.802L66.8818 262.187Z" fill="#FFB284"/>
<path d="M17.436 260.956L26.3561 262.373L29.1211 250.068L20.201 248.656L17.436 260.956Z" fill="#FFB284"/>
<path d="M60.4411 254.86C68.0328 256.215 75.8046 256.215 83.3962 254.86C83.0782 245.907 77.4675 187.875 70.0349 146.525L40.6875 147.419L60.4411 254.86Z" fill="#724E4E"/>
<path d="M49.0415 192.84L60.4463 254.86C60.4463 254.86 61.7129 255.162 63.9281 255.437L49.9955 188.528L49.0415 192.84Z" fill="#5E3E3E"/>
<path d="M57.8218 146.514H28.4366C25.2584 166.49 24.1117 186.737 25.0141 206.944C17.7379 231.069 15.2478 254.86 15.2478 254.86C25.4291 257.129 36.7315 254.86 36.7315 254.86C36.7315 254.86 47.565 218.15 50.3623 206.351C53.8872 191.449 57.8218 146.514 57.8218 146.514Z" fill="#724E4E"/>
<path d="M15.2478 254.86C16.3743 255.108 17.5007 255.307 18.611 255.453C20.0286 236.087 28.7546 206.179 28.7546 206.179C27.9408 185.542 30.792 161.115 30.792 161.115L27.8977 150.055C25.1484 168.882 24.1865 187.926 25.0249 206.934C17.7379 231.069 15.2478 254.86 15.2478 254.86Z" fill="#5E3E3E"/>
<path d="M42.4825 93.5052C42.4825 93.5052 57.7195 100.593 58.6519 94.2598L63.2817 95.8768L65.5185 152.055C58.3663 154.631 47.9693 153.957 36.8556 152.594L35.907 100.517L38.2785 94.6263L42.4825 93.5052Z" fill="white"/>
<path d="M26.5663 160.252C49.5484 165.421 65.1518 161.077 71.0483 158.835C71.818 158.543 72.4771 158.018 72.9333 157.332C73.3895 156.647 73.6199 155.836 73.5922 155.014L73.1233 140.111L73.1826 140.154C73.7647 140.553 77.834 143.151 83.6712 141.442C84.179 141.297 84.6761 141.117 85.1587 140.903H85.2072C96.6821 135.729 93.6854 114.11 93.1141 107.864L82.3345 106.721L79.6396 118.007C78.3386 113.659 76.7855 109.39 74.9882 105.223C72.6329 99.9676 69.2265 97.774 63.26 95.8875C63.26 95.8875 59.6381 105.158 40.8223 96.2055L39.0491 98.0003L29.1803 108.015C25.4183 123.968 22.2706 140.229 26.5663 160.252Z" fill="#3C3C43"/>
<path d="M30.1128 162.188L33.8856 166.802C36.2733 166.004 38.3791 164.533 39.9492 162.565L36.4997 157.51L30.1128 162.188Z" fill="#FFB284"/>
<path d="M39.5449 156.259C36.4727 149.699 35.4756 141.35 34.2414 135.815C33.6168 133.059 33.7396 130.186 34.5971 127.493L37.5992 118.066C37.6717 117.843 37.6694 117.602 37.5925 117.381C37.5156 117.159 37.3685 116.968 37.1734 116.838L30.1343 131.53L25.6877 152.335L36.5158 156.647L39.5449 156.259Z" fill="#3C3C43"/>
<path d="M29.7193 163.745L39.3347 156.625C33.7347 148.815 30.4685 138.596 30.6033 131.967C30.7919 122.33 42.3315 96.8631 42.3315 96.8631C40.9762 96.2029 39.675 95.437 38.44 94.5724C34.4085 95.5426 27.2346 98.2429 23.8013 101.843C20.6429 105.158 13.1188 122.492 12.4343 134.031C11.4749 150.271 29.7193 163.745 29.7193 163.745Z" fill="#3C3C43"/>
<path d="M44.0239 79.3681L47.3279 79.1741C47.4464 77.1853 48.6645 73.0459 51.2786 73.7142C51.2786 73.7142 56.954 78.4249 61.7186 75.439C61.7186 75.439 62.7535 68.567 56.6307 67.5106C50.5078 66.4542 46.4871 68.1789 46.0505 70.3079C45.5115 72.9489 44.0239 79.3681 44.0239 79.3681Z" fill="#20A090"/>
<path d="M38.3485 111.249L37.6532 111.152C37.8342 109.875 37.9171 108.587 37.9011 107.298C37.7394 98.4426 31.7568 98.2809 31.498 98.2755V97.5749C31.5897 97.5749 38.4293 97.6773 38.6018 107.276C38.6163 108.605 38.5317 109.933 38.3485 111.249Z" fill="#3C3C43"/>
<path d="M42.4877 269.913H14.9998L16.8754 259.134C22.7072 261.775 25.3697 260.114 27.116 259.532C27.116 259.532 28.5389 260.389 30.0211 261.252C33.0857 262.899 36.2421 264.369 39.4748 265.655C40.3268 266.01 41.0598 266.601 41.5877 267.358C42.1157 268.115 42.4167 269.007 42.4554 269.929L42.4877 269.913Z" fill="#D1C5C5"/>
<path d="M16.4943 259.076L14.6245 269.867L15.4211 270.005L17.2909 259.214L16.4943 259.076Z" fill="white"/>
<path d="M22.3301 263.376C20.2581 263.336 18.2085 262.939 16.272 262.201L16.5738 261.452C16.6331 261.452 22.7775 263.904 26.6797 261.484L27.1055 262.168C25.657 263.007 24.0032 263.425 22.3301 263.376Z" fill="white"/>
<path d="M91.675 269.908H64.187L66.0627 259.129C71.8944 261.77 74.557 260.11 76.3033 259.527C76.3033 259.527 77.7316 260.384 79.2138 261.241C82.2754 262.891 85.4301 264.361 88.6621 265.645C89.514 266 90.247 266.591 90.775 267.348C91.3029 268.105 91.6039 268.997 91.6426 269.919L91.675 269.908Z" fill="#D1C5C5"/>
<path d="M65.6784 259.032L63.8096 269.829L64.6062 269.967L66.475 259.17L65.6784 259.032Z" fill="white"/>
<path d="M71.5171 263.376C69.4453 263.335 67.3959 262.937 65.459 262.201L65.7608 261.452C65.8255 261.452 71.9699 263.904 75.8667 261.484L76.2925 262.168C74.8442 263.008 73.1903 263.426 71.5171 263.376Z" fill="white"/>
<path d="M54.9867 91.5759C53.9059 91.5841 52.839 91.3317 51.8764 90.8401C50.9138 90.3485 50.0838 89.6321 49.4568 88.7517L50.109 88.2774C50.7243 89.1423 51.5606 89.8262 52.5305 90.2575C53.5004 90.6889 54.5683 90.852 55.6227 90.7297L55.7575 91.5274C55.502 91.5613 55.2444 91.5775 54.9867 91.5759Z" fill="white"/>
<path d="M68.9409 106.592L68.251 106.462C69.1295 101.865 71.7274 100.48 71.8406 100.426L72.1586 101.045C72.1586 101.045 69.7493 102.355 68.9409 106.592Z" fill="#3C3C43"/>
<path d="M47.0692 83.4048C47.0692 83.4048 44.0563 84.1055 43.6736 81.1519C43.3286 78.4893 46.1421 77.2659 47.4465 78.9259L47.0692 83.4048Z" fill="#FFB284"/>
<path d="M58.1074 76.4305C63.9715 75.7083 65.5184 71.3533 65.5184 71.3533C65.5184 71.3533 63.9014 71.1431 63.6805 70.3401C63.3948 69.3915 62.9475 66.1414 58.8836 66.0282L58.1074 76.4305Z" fill="#20A090"/>
<path d="M78.303 121.273C78.2746 120.078 78.5888 118.9 79.2085 117.878L79.796 118.261C79.2589 119.159 78.9844 120.189 79.0037 121.236L78.303 121.273Z" fill="#3C3C43"/>
<path d="M70.3047 123.877L73.1236 140.111L73.1828 140.154C73.7649 140.553 77.8342 143.151 83.6714 141.443C84.1792 141.298 84.6763 141.118 85.159 140.904H85.2075C85.2075 140.904 75.6406 140.316 72.7624 129.925C72.2235 127.974 71.0485 123.899 71.0485 123.899L70.3047 123.877Z" fill="#3C3C43"/>
<path d="M89.837 112.019C86.4679 112.028 83.1576 111.137 80.2485 109.438L80.6043 108.834C84.2389 110.938 88.4858 111.729 92.6343 111.076L92.7852 111.761C91.8138 111.947 90.826 112.034 89.837 112.019Z" fill="#3C3C43"/>
<path d="M47.1175 66.4757C46.9907 66.0454 46.771 65.6481 46.4739 65.3119C46.1769 64.9757 45.8097 64.7088 45.3982 64.53L45.7054 63.7862C46.234 64.0132 46.7055 64.3548 47.0858 64.7864C47.4662 65.218 47.7458 65.7288 47.9044 66.2817L47.1175 66.4757Z" fill="#20A090"/>
<path d="M47.5057 66.5942L46.6973 66.5619C46.8093 65.0716 47.434 63.666 48.4651 62.5842L49.0364 63.1609C48.1535 64.0999 47.6141 65.3099 47.5057 66.5942Z" fill="#20A090"/>
<path d="M47.5864 79.5892C47.3086 79.2262 46.945 78.9377 46.5283 78.7495C46.1116 78.5614 45.6548 78.4796 45.1987 78.5113V77.7028C45.7912 77.6688 46.383 77.7813 46.9217 78.0304C47.4603 78.2795 47.9293 78.6576 48.2871 79.1311L47.608 79.5677L47.9475 79.3521L47.5864 79.5892Z" fill="white"/>
<path d="M36.2262 117.926L29.8198 131.387L30.4525 131.689L36.8589 118.227L36.2262 117.926Z" fill="white"/>
<path d="M39.0545 156.83C33.2174 148.702 31.5789 141.841 30.6734 135.637C30.6033 135.158 30.5548 134.705 30.5117 134.279C30.2853 132.123 30.1775 131.104 27.9731 131.309L27.9084 130.609C30.8135 130.344 30.986 132.053 31.2124 134.209C31.2555 134.624 31.2986 135.066 31.3687 135.535C32.258 141.652 33.8749 148.411 39.6205 156.42L39.0545 156.83Z" fill="#3C3C43"/>
<path d="M31.3526 168.197L31.207 167.513C32.4456 167.255 33.6554 166.874 34.8182 166.375L34.9152 166.327C34.9881 166.301 35.0585 166.269 35.1254 166.23C37.3772 165.25 39.2963 163.638 40.65 161.589L40.747 161.433C41.1209 160.847 41.4163 160.215 41.6255 159.552L42.3046 159.73C42.0766 160.461 41.7522 161.159 41.3398 161.805L41.2482 161.95C39.8296 164.115 37.813 165.82 35.4434 166.86L35.2009 166.974L35.1092 167.011C33.9007 167.533 32.6419 167.931 31.3526 168.197Z" fill="white"/>
<path d="M72.3599 129.109L71.6606 129.153L73.2139 153.773L73.9132 153.729L72.3599 129.109Z" fill="#3C3C43"/>
<path d="M26.0327 162.355L25.3428 161.929C27.9999 157.617 36.0146 154.103 36.3541 153.957L36.6775 154.696C36.5967 154.734 28.5551 158.253 26.0327 162.355Z" fill="#3C3C43"/>
<path d="M52.2054 197.076L51.52 197.221L63.8813 255.427L64.5667 255.281L52.2054 197.076Z" fill="white"/>
<path d="M76.9932 203.737C75.9853 201.042 74.2229 197.119 73.4629 196.779L73.7485 196.138C75.0529 196.72 77.225 202.368 77.6508 203.495L76.9932 203.737Z" fill="white"/>
<path d="M24.8307 208.804L24.157 208.616C25.0247 205.586 28.4257 203.468 28.5658 203.382L28.9377 203.98C28.9 203.98 25.623 206.028 24.8307 208.804Z" fill="white"/>
<path d="M50.7018 206.422L50.0173 206.26C51.0414 201.948 51.7906 194.888 52.5775 187.428C53.0626 182.874 53.5638 178.158 54.1944 173.539L54.8897 173.63C54.2861 178.239 53.7848 182.949 53.3051 187.504C52.4859 194.985 51.7367 202.051 50.7018 206.422Z" fill="white"/>
<path d="M72.5468 164.861C72.3797 164.834 68.4775 164.134 66.866 158.798L67.5343 158.593C69.0165 163.498 72.5145 164.144 72.66 164.171L72.5468 164.861Z" fill="white"/>
<path d="M72.094 133.853L71.6574 131.6C71.1223 129.024 70.4257 126.484 69.5715 123.995L70.2291 123.758C70.8733 125.612 71.4237 127.497 71.8784 129.407L72.2556 126.011L72.9509 126.087L72.094 133.853Z" fill="#3C3C43"/>
<path d="M54.4587 100.556C49.748 100.556 43.8354 98.3511 36.8018 93.9692L37.1737 93.3763C48.5946 100.469 55.0732 100.469 58.4957 99.1704C59.5967 98.7764 60.6 98.1498 61.4371 97.3332C62.2741 96.5165 62.9254 95.5291 63.3465 94.4381L64.0148 94.6376C63.573 95.8345 62.8732 96.9195 61.965 97.8155C61.0568 98.7116 59.9625 99.3968 58.7598 99.8225C57.3824 100.326 55.925 100.574 54.4587 100.556Z" fill="white"/>
<path d="M52.9333 153.72C52.8632 153.693 45.6948 151.079 41.4746 144.515L42.0675 144.137C46.1529 150.503 53.1004 153.036 53.1705 153.063L52.9333 153.72Z" fill="#3C3C43"/>
<path d="M45.8782 142.251C45.8782 142.251 44.6601 140.828 39.4104 135.438L39.9116 134.948C45.2152 140.337 46.3794 141.744 46.4333 141.798L45.8782 142.251Z" fill="#3C3C43"/>
<path d="M54.0381 97.2351C51.9414 97.2351 49.3759 96.5021 46.3792 95.0415L46.6864 94.4109C50.9982 96.5183 54.4477 97.0627 56.6575 95.9955C57.1868 95.7509 57.6572 95.3952 58.0367 94.9524C58.4162 94.5097 58.6958 93.9904 58.8565 93.4299L59.541 93.5808C59.3573 94.2415 59.0335 94.8549 58.5918 95.3794C58.1501 95.9039 57.6007 96.3273 56.9809 96.6207C56.0592 97.046 55.0529 97.2561 54.0381 97.2351Z" fill="white"/>
<path d="M242.492 66.5508H150.92C147.517 66.5508 144.759 69.309 144.759 72.7113V203.597C144.759 206.999 147.517 209.758 150.92 209.758H242.492C245.895 209.758 248.653 206.999 248.653 203.597V72.7113C248.653 69.309 245.895 66.5508 242.492 66.5508Z" fill="#DAF3F7"/>
<path d="M241.743 120.843C241.755 132.164 237.497 143.074 229.82 151.394C222.142 159.715 211.608 164.833 200.322 165.729L199.848 165.767C198.809 165.835 197.762 165.871 196.706 165.874C187.798 165.874 179.09 163.233 171.684 158.284C164.277 153.335 158.505 146.301 155.096 138.071C151.688 129.841 150.796 120.785 152.534 112.049C154.272 103.313 158.562 95.2877 164.861 88.9893C171.161 82.691 179.186 78.402 187.923 76.6649C196.659 74.9277 205.715 75.8204 213.944 79.23C222.174 82.6395 229.207 88.4129 234.155 95.8199C239.103 103.227 241.744 111.935 241.743 120.843Z" fill="white"/>
<path d="M226.673 128.658C221.952 132.043 211.787 130.555 211.787 130.555L214.724 117.717L220.718 121.074C220.718 121.074 225.908 107.762 225.644 105.827C225.458 105.244 225.224 104.678 224.943 104.134C224.291 102.345 224.242 100.232 224.668 100.027C225.568 99.596 225.638 102.41 226.285 102.232C226.695 102.135 227.137 97.1167 228.075 97.4078C228.705 97.5964 228.015 100.642 228.376 100.604C228.738 100.566 228.77 96.7233 229.702 96.9658C230.635 97.2084 229.082 101.278 229.541 101.353C229.767 101.402 230.57 96.7287 231.335 96.9389C232.349 97.2299 230.683 101.051 231.141 101.224C231.368 101.288 231.68 99.8655 232.02 99.0301C232.187 98.5666 232.602 98.6097 232.634 98.9439C232.888 100.717 232.268 102.339 231.524 104.598C231.255 105.279 230.854 105.9 230.344 106.425C229.907 106.937 231.858 124.944 226.673 128.658Z" fill="#FFB284"/>
<path d="M179.917 109.54C179.917 109.54 183.42 78.161 200.35 84.2407C200.35 84.2407 204.29 82.877 207.561 86.6715C212.951 92.9344 208.639 100.545 212.924 108.231C212.924 108.214 203.104 116.639 179.917 109.54Z" fill="#24786D"/>
<path d="M201.136 118.633C196.711 119.808 193.504 113.006 193.504 113.006C193.911 109.868 193.962 106.695 193.655 103.547L199.67 106.894L203.443 108.117C203.443 108.117 203.497 109.147 203.659 110.375C203.82 111.604 204.128 113.14 204.597 113.852C204.591 113.852 205.561 117.463 201.136 118.633Z" fill="#FFB284"/>
<path d="M217.769 130.873C217.634 131.52 217.532 131.891 217.532 131.891H216.325H215.247L210.471 131.94H209.663L207.167 131.967C207.167 131.967 205.039 121.866 204.376 116.175C204.25 115.217 204.188 114.252 204.192 113.286H204.327C208.125 113.751 211.776 115.039 215.026 117.059L215.565 117.393L215.807 117.549C216.055 117.716 216.298 117.883 216.54 118.061C216.939 118.352 217.338 118.66 217.737 118.983C217.785 119.128 217.834 119.269 217.872 119.42C219.079 123.591 218.227 128.728 217.769 130.873Z" fill="#3C3C43"/>
<path d="M193.672 103.945C193.672 103.945 197.272 110.553 203.524 109.184C210.65 107.621 207.297 90.5032 207.297 90.5032C207.297 90.5032 205.244 84.6121 196.933 87.8083C192.578 89.4791 193.079 95.1492 193.23 99.0083C192.744 98.7781 192.203 98.6943 191.67 98.767C191.138 98.8398 190.639 99.0659 190.233 99.4179C188.514 100.819 189.344 104.36 193.672 103.945Z" fill="#FFB284"/>
<path d="M192.534 97.9409C192.534 97.9409 203.314 96.3239 203.314 90.449C203.314 90.449 205.513 94.265 208.887 94.0548C208.887 94.0548 209.048 87.2691 203.012 85.8623C196.975 84.4556 194.043 86.2612 194.043 86.2612C194.043 86.2612 189.85 92.5618 192.534 97.9409Z" fill="#24786D"/>
<path d="M215.188 161.805C210.489 163.92 205.46 165.207 200.323 165.61H200.253H199.989H199.848H199.444C198.539 165.664 197.628 165.702 196.706 165.702C190.34 165.711 184.046 164.364 178.241 161.751C178.635 158.902 179.185 156.077 179.89 153.289C180.546 150.704 181.363 148.162 182.337 145.679C182.334 145.659 182.334 145.639 182.337 145.619C182.547 145.08 182.774 144.514 183.011 143.965L209.647 144.148L210.229 145.873C210.31 146.115 210.396 146.374 210.488 146.66C210.488 146.687 210.488 146.708 210.488 146.735L210.628 147.139C210.671 147.269 210.714 147.403 210.757 147.544C211.334 149.311 212.089 151.677 212.913 154.437C212.994 154.707 213.08 154.976 213.167 155.256C213.846 157.267 214.525 159.482 215.188 161.805Z" fill="#20A090"/>
<path d="M184.423 156.712L184.229 155.925C184.525 155.855 191.543 154.054 193.607 149.29L194.351 149.613C192.13 154.739 184.741 156.631 184.423 156.712Z" fill="white"/>
<path d="M189.645 158.172C189.23 158.549 187.301 156.69 187.155 156.965C187.01 157.24 189.85 158.981 189.263 159.568C188.675 160.156 186.341 157.197 186.077 157.493C185.937 157.649 189.052 160.317 188.551 160.792C187.883 161.411 185.797 158.485 185.463 158.749C185.312 158.878 186.228 159.762 186.703 160.366C186.967 160.705 186.746 160.996 186.492 160.872C183.652 159.509 182.719 157.579 182.342 156.469C182.163 155.949 181.879 155.472 181.507 155.068C178.364 151.726 168.949 140.747 172.091 130.027L183.124 133.994C183.124 133.994 179.933 145.005 184.935 153.348C185.719 153.444 186.496 153.597 187.258 153.806C187.948 154.092 189.591 154.884 189.333 155.348C189.074 155.811 187.306 154.766 187.177 155.321C187.053 155.666 190.281 157.601 189.645 158.172Z" fill="#FFB284"/>
<path d="M182.239 145.635C182.239 145.635 202.149 152.281 210.805 145.458C210.805 145.458 211.312 123.16 204.171 113.313C203.351 118.854 193.596 111.944 193.596 111.944L181.199 131.045L182.239 145.635Z" fill="#3C3C43"/>
<path d="M193.617 111.955L193.504 112.235L183.264 137.028H182.999H182.536C182.513 137.033 182.489 137.033 182.466 137.028C182.191 137.028 181.927 137.028 181.657 137.028C177.373 136.834 173.535 134.818 171.508 133.546C170.544 132.937 169.989 132.495 169.989 132.495C169.989 132.495 170.123 131.988 170.414 131.126C170.479 130.954 170.544 130.76 170.614 130.555C170.646 130.485 170.673 130.409 170.705 130.334C170.738 130.258 170.797 130.091 170.84 129.962C172.888 124.637 178.763 112.758 190.825 111.922C191.759 111.858 192.695 111.858 193.628 111.922L193.617 111.955Z" fill="#3C3C43"/>
<path d="M209.911 134.662C209.646 130.781 209.042 126.93 208.105 123.155L208.887 122.955C209.839 126.774 210.45 130.67 210.714 134.597L209.911 134.662Z" fill="white"/>
<path d="M216.476 130.878C216.416 131.277 216.368 131.622 216.325 131.908H215.511C215.554 131.627 215.603 131.272 215.662 130.83C216.039 128.065 216.584 122.567 215.732 118.244C215.678 117.959 215.613 117.706 215.543 117.404L215.786 117.56C216.034 117.727 216.276 117.894 216.519 118.072C216.567 118.298 216.605 118.525 216.637 118.757C217.333 123.052 216.837 128.172 216.476 130.878Z" fill="white"/>
<path d="M183.091 134.91V135.718H182.757C182.617 135.727 182.477 135.727 182.337 135.718C182.078 135.718 181.798 135.681 181.545 135.654C177.917 135.217 174.182 133.449 171.67 131.973C171.202 131.692 170.77 131.434 170.398 131.186C170.463 131.013 170.528 130.819 170.598 130.614C170.63 130.544 170.657 130.469 170.689 130.393C171.002 130.598 171.39 130.846 171.832 131.11C174.058 132.452 177.761 134.344 181.485 134.829C181.819 134.872 182.148 134.905 182.477 134.926H182.924L183.091 134.91Z" fill="white"/>
<path d="M182.973 137.12L182.165 137.071C182.165 137.001 182.644 130 186.913 124.89L187.538 125.429C183.447 130.28 182.978 137.033 182.973 137.12Z" fill="white"/>
<path d="M199.234 154.636C198.914 154.636 198.601 154.542 198.336 154.364C198.07 154.186 197.862 153.934 197.74 153.638C197.618 153.343 197.586 153.018 197.648 152.704C197.71 152.39 197.864 152.102 198.091 151.876C198.317 151.65 198.605 151.496 198.918 151.434C199.232 151.371 199.557 151.403 199.853 151.526C200.148 151.648 200.401 151.855 200.578 152.121C200.756 152.387 200.851 152.7 200.851 153.019C200.851 153.448 200.68 153.86 200.377 154.163C200.074 154.466 199.663 154.636 199.234 154.636ZM199.234 152.211C199.074 152.212 198.918 152.26 198.786 152.35C198.654 152.439 198.551 152.566 198.491 152.714C198.43 152.862 198.415 153.024 198.447 153.18C198.479 153.337 198.556 153.48 198.67 153.593C198.783 153.705 198.927 153.782 199.084 153.813C199.24 153.843 199.402 153.827 199.55 153.766C199.697 153.704 199.823 153.601 199.912 153.468C200 153.335 200.048 153.179 200.048 153.019C200.048 152.913 200.027 152.807 199.986 152.709C199.945 152.61 199.885 152.521 199.809 152.446C199.733 152.371 199.644 152.311 199.545 152.271C199.446 152.231 199.341 152.21 199.234 152.211Z" fill="white"/>
<path d="M213.005 154.426C211.438 154.301 209.918 153.832 208.552 153.053C207.187 152.274 206.009 151.205 205.103 149.921C204.947 149.71 204.803 149.49 204.672 149.263L203.923 149.565C204.019 149.751 204.127 149.931 204.246 150.104C205.157 151.467 208.051 155.062 213.258 155.262L213.005 154.426Z" fill="white"/>
<path d="M182.585 146.848C184.153 147.35 191.839 149.673 199.293 149.673C204.187 149.673 207.971 148.686 210.558 146.724L210.698 147.129C210.741 147.258 210.784 147.393 210.827 147.533C209.107 148.719 207.157 149.532 205.103 149.921C204.823 149.985 204.564 150.044 204.246 150.088C202.61 150.361 200.952 150.493 199.293 150.481C197.554 150.475 195.818 150.366 194.092 150.152C193.801 150.12 193.51 150.088 193.224 150.044C189.68 149.555 186.18 148.787 182.757 147.748L182.585 146.848Z" fill="white"/>
<path d="M199.444 165.685C199.142 160.732 199.062 156.641 199.062 156.609H199.87C199.87 156.641 199.956 160.727 200.253 165.637L199.444 165.685Z" fill="white"/>
<path d="M201.616 109.756C200.633 109.78 199.657 109.592 198.754 109.204C197.85 108.816 197.042 108.238 196.383 107.508L196.981 106.969C199.8 110.101 203.988 108.586 204.047 108.586L204.327 109.346C203.45 109.623 202.536 109.761 201.616 109.756Z" fill="white"/>
<path d="M198.285 98.0005L197.989 97.2513C198.032 97.2513 202.812 95.2787 202.915 90.5626H203.723C203.605 95.8392 198.339 97.979 198.285 98.0005Z" fill="#20A090"/>
<path d="M208.455 95.6666C204.726 95.6666 203.001 91.3548 202.926 91.1769L203.68 90.8859C203.68 90.929 205.405 95.1977 208.86 94.8366L208.935 95.6397C208.768 95.6558 208.606 95.6666 208.455 95.6666Z" fill="#20A090"/>
<path d="M179.383 79.8424L178.968 78.8507C184.579 76.4745 190.612 75.2554 196.706 75.2665C198.93 75.2667 201.151 75.427 203.351 75.7462L203.195 76.8241C201.053 76.5122 198.892 76.3555 196.727 76.3552C190.77 76.3368 184.87 77.5229 179.383 79.8424Z" fill="#20A090"/>
<path d="M196.706 166.413C190.263 166.427 183.892 165.064 178.019 162.414C170.016 158.803 163.223 152.961 158.454 145.588C153.686 138.215 151.145 129.623 151.135 120.842C151.112 114.67 152.354 108.558 154.783 102.884C157.213 97.2105 160.779 92.0943 165.262 87.8513L166.006 88.6329C161.628 92.7748 158.146 97.7697 155.774 103.309C153.402 108.849 152.19 114.816 152.213 120.842C152.224 129.415 154.705 137.803 159.361 145.002C164.016 152.201 170.647 157.906 178.461 161.433C184.195 164.019 190.416 165.349 196.706 165.335C197.724 165.335 198.765 165.297 199.81 165.227L200.268 165.195C205.349 164.794 210.321 163.518 214.966 161.422C216.618 160.677 218.224 159.833 219.774 158.894L220.313 159.816C214.251 163.505 207.407 165.721 200.333 166.284C200.193 166.284 200.031 166.311 199.875 166.316C198.819 166.375 197.746 166.413 196.706 166.413Z" fill="#24786D"/>
<path d="M24.1569 92.6107C23.4107 92.6107 22.6812 92.3894 22.0608 91.9749C21.4404 91.5603 20.9568 90.9711 20.6712 90.2817C20.3857 89.5923 20.311 88.8337 20.4565 88.1018C20.6021 87.3699 20.9614 86.6977 21.4891 86.17C22.0167 85.6424 22.689 85.2831 23.4208 85.1375C24.1527 84.9919 24.9113 85.0666 25.6007 85.3522C26.2901 85.6378 26.8793 86.1213 27.2939 86.7418C27.7085 87.3622 27.9297 88.0917 27.9297 88.8379C27.9297 89.8385 27.5323 90.7981 26.8247 91.5057C26.1172 92.2132 25.1575 92.6107 24.1569 92.6107ZM24.1569 86.0998C23.6239 86.0998 23.1029 86.2579 22.6597 86.554C22.2165 86.8501 21.8711 87.271 21.6671 87.7635C21.4632 88.2559 21.4098 88.7977 21.5138 89.3205C21.6178 89.8432 21.8744 90.3234 22.2513 90.7003C22.6282 91.0772 23.1084 91.3339 23.6311 91.4379C24.1539 91.5418 24.6958 91.4885 25.1882 91.2845C25.6806 91.0805 26.1015 90.7351 26.3976 90.2919C26.6937 89.8488 26.8518 89.3277 26.8518 88.7947C26.8518 88.08 26.5679 87.3945 26.0625 86.8892C25.5571 86.3838 24.8716 86.0998 24.1569 86.0998Z" fill="#8ECBD8"/>
<path d="M12.402 204.271C11.6558 204.271 10.9264 204.05 10.3059 203.636C9.68548 203.221 9.2019 202.632 8.91634 201.942C8.63078 201.253 8.55607 200.494 8.70165 199.762C8.84722 199.031 9.20655 198.358 9.73419 197.831C10.2618 197.303 10.9341 196.944 11.666 196.798C12.3978 196.653 13.1564 196.727 13.8458 197.013C14.5352 197.298 15.1245 197.782 15.539 198.402C15.9536 199.023 16.1749 199.752 16.1749 200.498C16.1678 201.497 15.768 202.452 15.062 203.159C14.356 203.865 13.4005 204.264 12.402 204.271ZM12.402 197.766C11.869 197.766 11.348 197.924 10.9048 198.22C10.4616 198.516 10.1162 198.937 9.91225 199.429C9.70828 199.922 9.65491 200.464 9.75889 200.987C9.86287 201.509 10.1195 201.989 10.4964 202.366C10.8733 202.743 11.3535 203 11.8763 203.104C12.399 203.208 12.9409 203.155 13.4333 202.951C13.9257 202.747 14.3466 202.401 14.6427 201.958C14.9389 201.515 15.0969 200.994 15.0969 200.461C15.0969 199.746 14.813 199.061 14.3076 198.555C13.8022 198.05 13.1167 197.766 12.402 197.766Z" fill="white"/>
<path d="M107.338 198.59C106.959 198.59 106.589 198.478 106.275 198.268C105.96 198.058 105.715 197.759 105.57 197.409C105.425 197.059 105.387 196.675 105.461 196.304C105.535 195.932 105.717 195.591 105.985 195.324C106.252 195.056 106.593 194.874 106.964 194.8C107.336 194.726 107.72 194.764 108.07 194.909C108.42 195.054 108.718 195.299 108.929 195.614C109.139 195.929 109.251 196.298 109.251 196.677C109.25 197.184 109.048 197.67 108.689 198.028C108.331 198.387 107.845 198.589 107.338 198.59ZM107.338 195.308C107.067 195.308 106.802 195.388 106.577 195.539C106.352 195.689 106.177 195.903 106.073 196.153C105.969 196.403 105.942 196.678 105.995 196.944C106.048 197.21 106.178 197.453 106.37 197.645C106.561 197.836 106.805 197.967 107.071 198.02C107.336 198.072 107.611 198.045 107.862 197.942C108.112 197.838 108.326 197.663 108.476 197.437C108.626 197.212 108.707 196.948 108.707 196.677C108.7 196.318 108.553 195.976 108.297 195.724C108.041 195.472 107.697 195.331 107.338 195.329V195.308Z" fill="white"/>
<path d="M85.2181 69.0466C84.8396 69.0466 84.4697 68.9344 84.155 68.7242C83.8404 68.5139 83.5951 68.2151 83.4503 67.8655C83.3055 67.5159 83.2676 67.1311 83.3415 66.76C83.4153 66.3888 83.5975 66.0479 83.8651 65.7803C84.1327 65.5127 84.4736 65.3305 84.8448 65.2566C85.2159 65.1828 85.6007 65.2207 85.9503 65.3655C86.2999 65.5103 86.5987 65.7556 86.809 66.0702C87.0192 66.3849 87.1314 66.7548 87.1314 67.1333C87.13 67.6403 86.928 68.1261 86.5694 68.4846C86.2109 68.8432 85.7251 69.0452 85.2181 69.0466ZM85.2181 65.7642C84.9473 65.7642 84.6826 65.8445 84.4575 65.995C84.2323 66.1454 84.0569 66.3592 83.9533 66.6094C83.8497 66.8595 83.8225 67.1348 83.8754 67.4003C83.9282 67.6659 84.0586 67.9098 84.25 68.1013C84.4415 68.2927 84.6854 68.4231 84.951 68.476C85.2165 68.5288 85.4918 68.5017 85.742 68.3981C85.9921 68.2944 86.2059 68.119 86.3564 67.8938C86.5068 67.6687 86.5871 67.404 86.5871 67.1333C86.5857 66.7706 86.441 66.4232 86.1845 66.1668C85.9281 65.9104 85.5807 65.7657 85.2181 65.7642Z" fill="white"/>
<path d="M299.101 70.9653C298.721 70.9653 298.35 70.8526 298.035 70.6415C297.719 70.4305 297.473 70.1305 297.328 69.7795C297.183 69.4286 297.145 69.0425 297.22 68.6702C297.294 68.2978 297.477 67.956 297.746 67.6878C298.015 67.4197 298.358 67.2374 298.73 67.164C299.103 67.0905 299.489 67.1293 299.839 67.2754C300.19 67.4214 300.489 67.6682 300.699 67.9844C300.909 68.3007 301.021 68.6722 301.02 69.0519C301.02 69.3036 300.97 69.5529 300.874 69.7854C300.777 70.0179 300.636 70.229 300.458 70.4068C300.279 70.5845 300.068 70.7253 299.835 70.8212C299.602 70.917 299.353 70.966 299.101 70.9653ZM299.101 67.6775C298.829 67.6775 298.564 67.7581 298.338 67.9091C298.112 68.0602 297.935 68.2748 297.831 68.5259C297.727 68.7771 297.7 69.0534 297.753 69.32C297.806 69.5866 297.937 69.8315 298.129 70.0238C298.322 70.216 298.566 70.3469 298.833 70.3999C299.1 70.4529 299.376 70.4257 299.627 70.3217C299.878 70.2177 300.093 70.0415 300.244 69.8155C300.395 69.5895 300.476 69.3237 300.476 69.0519C300.476 68.6874 300.331 68.3378 300.073 68.0801C299.815 67.8223 299.466 67.6775 299.101 67.6775Z" fill="#8ECBD8"/>
<path d="M330.303 188.824H321.054L325.678 180.815L330.303 188.824ZM322.924 187.746H328.432L325.678 182.971L322.924 187.746Z" fill="#8ECBD8"/>
<path d="M100.164 217.993H90.9153L95.5397 209.984L100.164 217.993ZM92.7855 216.915H98.2939L95.5397 212.14L92.7855 216.915Z" fill="#8ECBD8"/>
<path d="M122.812 49.8753H113.563L118.187 41.866L122.812 49.8753ZM115.433 48.7973H120.942L118.187 44.0219L115.433 48.7973Z" fill="white"/>
<path d="M219.284 1.10269C219.018 1.10269 218.754 1.10269 218.491 1.10269C218.222 1.10269 217.952 1.10269 217.694 1.10269C199.293 1.64167 188.007 21.5839 196.587 37.8719L216.319 73.5523C216.533 73.9411 216.848 74.2654 217.23 74.4912C217.612 74.7171 218.048 74.8362 218.491 74.8362C218.935 74.8362 219.371 74.7171 219.753 74.4912C220.135 74.2654 220.45 73.9411 220.664 73.5523L240.39 37.8719C248.965 21.5785 237.684 1.63628 219.284 1.10269ZM218.491 39.9577C215.646 39.9588 212.863 39.1161 210.497 37.5362C208.13 35.9563 206.284 33.7101 205.194 31.0815C204.103 28.453 203.817 25.5602 204.37 22.7687C204.923 19.9773 206.292 17.4126 208.303 15.3988C210.313 13.385 212.876 12.0126 215.667 11.4551C218.457 10.8976 221.351 11.1799 223.981 12.2665C226.611 13.3531 228.86 15.195 230.443 17.5596C232.027 19.9241 232.874 22.705 232.877 25.5508C232.88 27.4417 232.51 29.3147 231.788 31.0625C231.066 32.8103 230.007 34.3986 228.671 35.7367C227.335 37.0748 225.748 38.1364 224.001 38.8606C222.255 39.5849 220.382 39.9577 218.491 39.9577Z" fill="#20A090"/>
<path d="M218.492 74.8742V74.8741L218.483 74.8742C218.033 74.8771 217.591 74.7575 217.204 74.5284C216.816 74.2992 216.499 73.9691 216.285 73.5733L216.283 73.5692L196.56 37.8968C196.56 37.8954 196.559 37.8941 196.558 37.8927C194.828 34.6228 193.84 31.0116 193.665 27.3163C193.497 23.7857 194.076 20.2613 195.36 16.9721L195.432 17.0017C194.152 20.2785 193.576 23.7895 193.742 27.3069C193.916 30.9913 194.9 34.592 196.625 37.8524L196.625 37.8525L196.629 37.8606L216.349 73.5325C216.349 73.533 216.35 73.5335 216.35 73.534C216.559 73.9179 216.868 74.238 217.244 74.4602L217.499 74.0297L217.244 74.4603C217.62 74.6822 218.049 74.7983 218.486 74.7962C218.923 74.7994 219.353 74.6839 219.73 74.462C220.108 74.2396 220.418 73.9188 220.628 73.5339C220.628 73.5334 220.628 73.5329 220.629 73.5324L231.765 53.3958L231.84 53.4385L220.695 73.5853L220.694 73.5868C220.478 73.9808 220.159 74.3086 219.771 74.5353C219.383 74.7621 218.941 74.8792 218.492 74.8742ZM240.337 37.8498L240.337 37.8499L240.342 37.842C242.347 34.058 243.349 29.8235 243.252 25.5422C243.156 21.2617 241.965 17.0771 239.793 13.3876C237.704 9.7644 234.722 6.73666 231.131 4.59301C227.539 2.44893 223.458 1.26081 219.276 1.14197L219.269 1.14177H219.262H219.259H219.256H219.253H219.25H219.247H219.244H219.241H219.238H219.235H219.232H219.229H219.226H219.223H219.219H219.216H219.213H219.21H219.207H219.204H219.201H219.198H219.195H219.192H219.189H219.186H219.183H219.18H219.177H219.174H219.171H219.168H219.165H219.162H219.158H219.155H219.152H219.149H219.146H219.143H219.14H219.137H219.134H219.131H219.128H219.125H219.122H219.119H219.116H219.113H219.11H219.107H219.104H219.101H219.097H219.094H219.091H219.088H219.085H219.082H219.079H219.076H219.073H219.07H219.067H219.064H219.061H219.058H219.055H219.052H219.049H219.046H219.043H219.04H219.037H219.033H219.03H219.027H219.024H219.021H219.018H219.015H219.012H219.009H219.006H219.003H219H218.997H218.994H218.991H218.988H218.985H218.982H218.979H218.976H218.973H218.97H218.966H218.963H218.96H218.957H218.954H218.951H218.948H218.945H218.942H218.939H218.936H218.933H218.93H218.927H218.924H218.921H218.918H218.915H218.912H218.909H218.906H218.903H218.9H218.896H218.893H218.89H218.887H218.884H218.881H218.878H218.875H218.872H218.869H218.866H218.863H218.86H218.857H218.854H218.851H218.848H218.845H218.842H218.839H218.836H218.833H218.83H218.826H218.823H218.82H218.817H218.814H218.811H218.808H218.805H218.802H218.799H218.796H218.793H218.79H218.787H218.784H218.781H218.778H218.775H218.772H218.769H218.766H218.763H218.76H218.757H218.754H218.75H218.747H218.744H218.741H218.738H218.735H218.732H218.729H218.726H218.723H218.72H218.717H218.714H218.711H218.708H218.705H218.702H218.699H218.696H218.693H218.69H218.687H218.684H218.681H218.678H218.675H218.672H218.668H218.665H218.662H218.659H218.656H218.653H218.65H218.647H218.644H218.641H218.638H218.635H218.632H218.629H218.626H218.623H218.62H218.617H218.614H218.611H218.608H218.605H218.602H218.599H218.596H218.593H218.59H218.587H218.583H218.58H218.577H218.574H218.571H218.568H218.565H218.562H218.559H218.556H218.553H218.55H218.547H218.544H218.541H218.538H218.535H218.532H218.529H218.526H218.523H218.52H218.517H218.514H218.511H218.508H218.505H218.502H218.499H218.496H218.492H218.489H218.486H218.483H218.48H218.477H218.474H218.471H218.468H218.465H218.462H218.459H218.456H218.453H218.45H218.447H218.444H218.441H218.438H218.435H218.432H218.429H218.426H218.423H218.42H218.417H218.414H218.411H218.408H218.405H218.402H218.399H218.395H218.392H218.389H218.386H218.383H218.38H218.377H218.374H218.371H218.368H218.365H218.362H218.359H218.356H218.353H218.35H218.347H218.344H218.341H218.338H218.335H218.332H218.329H218.326H218.323H218.32H218.317H218.314H218.311H218.308H218.305H218.302H218.299H218.296H218.293H218.29H218.286H218.283H218.28H218.277H218.274H218.271H218.268H218.265H218.262H218.259H218.256H218.253H218.25H218.247H218.244H218.241H218.238H218.235H218.232H218.229H218.226H218.223H218.22H218.217H218.214H218.211H218.208H218.205H218.202H218.199H218.196H218.193H218.19H218.187H218.184H218.181H218.178H218.175H218.172H218.169H218.165H218.162H218.159H218.156H218.153H218.15H218.147H218.144H218.141H218.138H218.135H218.132H218.129H218.126H218.123H218.12H218.117H218.114H218.111H218.108H218.105H218.102H218.099H218.096H218.093H218.09H218.087H218.084H218.081H218.078H218.075H218.072H218.069H218.066H218.063H218.06H218.057H218.054H218.051H218.048H218.045H218.042H218.039H218.036H218.033H218.03H218.027H218.024H218.02H218.017H218.014H218.011H218.008H218.005H218.002H217.999H217.996H217.993H217.99H217.987H217.984H217.981H217.978H217.975H217.972H217.969H217.966H217.963H217.96H217.957H217.954H217.951H217.948H217.945H217.942H217.939H217.936H217.933H217.93H217.927H217.924H217.921H217.918H217.915H217.912H217.909H217.906H217.903H217.9H217.897H217.894H217.891H217.888H217.885H217.882H217.879H217.876H217.873H217.87H217.867H217.864H217.861H217.858H217.855H217.852H217.849H217.846H217.842H217.839H217.836H217.833H217.83H217.827H217.824H217.821H217.818H217.815H217.812H217.809H217.806H217.803H217.8H217.797H217.794H217.791H217.788H217.785H217.782H217.779H217.776H217.773H217.77H217.767H217.764H217.761H217.758H217.755H217.752H217.749H217.746H217.743H217.74H217.737H217.734H217.731H217.728H217.725H217.722H217.719H217.716H217.713H217.71V1.14162L217.697 1.14193C212.983 1.25947 208.408 2.74672 204.53 5.41681L204.484 5.35407C208.37 2.67549 212.954 1.18282 217.678 1.06381H219.282C223.477 1.17951 227.573 2.3686 231.177 4.51758C234.784 6.66773 237.779 9.70695 239.876 13.3448L239.878 13.3484C242.055 17.0526 243.246 21.2527 243.339 25.5481C243.431 29.8421 242.422 34.0883 240.409 37.8819L236.29 45.3462L236.216 45.3036L240.337 37.8498Z" stroke="white"/>
<path d="M280.679 106.662L284.209 105.374L287.201 94.691L294.746 94.7287L296.638 105.918L301.796 107.206C300.551 108.908 298.922 110.291 297.042 111.244C295.161 112.196 293.082 112.691 290.973 112.688C282.043 112.688 280.679 106.662 280.679 106.662Z" fill="#FFB284"/>
<path d="M251.391 263.004L255.369 250.381H246.114L243.29 263.004H251.391Z" fill="#FFB284"/>
<path d="M305.591 263.279L306.669 250.656H297.415L297.975 263.279H305.591Z" fill="#FFB284"/>
<path d="M287.249 205.899C287.249 209.769 287.287 213.692 287.378 217.616C287.669 230.126 288.456 242.76 290.073 254.304C292.528 254.878 295.013 255.311 297.517 255.603C298.207 255.684 298.869 255.744 299.516 255.787C300.389 255.846 301.225 255.884 302.022 255.884C303.318 255.902 304.613 255.851 305.903 255.733C308.356 255.489 310.78 255.011 313.142 254.304C313.142 254.304 318.375 194.359 309.099 140.655L290.542 140.736C290.542 140.736 288.801 156.906 287.847 178.944C287.508 186.894 287.265 195.615 287.238 204.621C287.249 205.031 287.249 205.473 287.249 205.899Z" fill="#3C3C43"/>
<path d="M300.336 103.352C300.336 103.352 327.824 109.481 322.72 133.756C320.105 146.223 310.862 148.239 310.862 148.239L300.336 103.352Z" fill="#724E4E"/>
<path d="M245.446 119.555C244.907 119.258 243.241 118.369 242.934 117.862C242.627 117.356 241.425 114.628 240.87 114.963C240.315 115.297 241.517 117 241.01 117.183C240.697 117.291 238.229 113.976 237.727 114.607C237.399 115.022 239.167 116.827 238.919 116.973C238.671 117.118 236.968 114.44 236.445 115.027C235.922 115.615 238.725 117.754 238.46 118.024C238.326 118.159 235.766 115.254 235.356 115.744C234.817 116.402 237.56 118.32 237.339 118.644C237.226 118.8 236.375 117.948 235.803 117.506C235.485 117.264 235.264 117.48 235.345 117.727C236.504 120.298 240.994 122.325 241.312 122.686C241.781 123.225 242.25 123.732 242.724 124.228L245.446 119.555Z" fill="#FFB284"/>
<path d="M287.249 205.899C287.249 209.769 287.287 213.693 287.378 217.617C287.669 230.126 288.456 242.76 290.073 254.305C292.528 254.878 295.013 255.312 297.517 255.604L297.63 255.545C289.454 235.484 291.437 183.321 291.437 183.321L287.842 178.95C287.502 186.9 287.26 195.621 287.233 204.627C287.249 205.031 287.249 205.473 287.249 205.899Z" fill="#BCADAD"/>
<path d="M239.075 254.375C250.054 257.684 261.211 254.375 261.211 254.375C289.685 200.746 302.675 140.165 302.675 140.165H280.679C252.264 189.864 239.075 254.375 239.075 254.375Z" fill="#3C3C43"/>
<path d="M257.4 124.82L245.446 117.786L240.363 124.017C240.363 124.017 247.726 143.205 262.16 141.593C273.705 140.299 280.668 118.659 280.668 118.659L257.4 124.82Z" fill="#724E4E"/>
<path d="M313.557 254.337L312.749 254.267C312.792 253.782 316.883 205.338 311.132 157.542L311.935 157.45C317.707 205.328 313.606 253.852 313.557 254.337Z" fill="white"/>
<path d="M261.566 254.563L260.855 254.181C273.564 230.239 285.061 202.579 292.396 178.298L293.172 178.529C285.821 202.875 274.303 230.573 261.566 254.563Z" fill="white"/>
<path d="M282.9 269.919H308.884L307.089 259.71C301.57 262.211 299.053 260.638 297.387 260.088C297.387 260.088 296.04 260.902 294.639 261.705C291.74 263.263 288.755 264.654 285.697 265.871C284.889 266.204 284.194 266.762 283.694 267.479C283.195 268.195 282.911 269.04 282.878 269.913L282.9 269.919Z" fill="#E86456"/>
<path d="M307.443 259.678L306.752 259.798L308.525 270.009L309.216 269.89L307.443 259.678Z" fill="white"/>
<path d="M301.969 263.704C300.392 263.754 298.833 263.36 297.469 262.567L297.835 261.974C301.538 264.276 307.364 261.974 307.423 261.974L307.688 262.621C305.858 263.31 303.923 263.676 301.969 263.704Z" fill="white"/>
<path d="M228.662 269.919H254.646L252.873 259.71C247.354 262.211 244.837 260.638 243.171 260.088C243.171 260.088 241.824 260.902 240.422 261.705C237.524 263.263 234.538 264.654 231.481 265.871C230.673 266.204 229.978 266.762 229.478 267.479C228.978 268.195 228.695 269.04 228.662 269.913V269.919Z" fill="#E86456"/>
<path d="M254.412 261.396L253.719 261.515L255.48 271.776L256.174 271.657L254.412 261.396Z" fill="white"/>
<path d="M247.731 263.704C246.154 263.753 244.595 263.359 243.231 262.567L243.597 261.974C247.305 264.276 253.126 261.974 253.186 261.974L253.45 262.621C251.621 263.31 249.686 263.676 247.731 263.704Z" fill="white"/>
<path d="M257.68 126.933C257.626 126.868 256.419 125.316 257.308 123.812L258.004 124.222C257.4 125.257 258.273 126.378 258.311 126.426L257.68 126.933Z" fill="white"/>
<path d="M276.787 163.918C276.216 163.918 273.855 163.81 272.389 162.085C271.311 160.781 270.977 158.894 271.484 156.469L272.168 156.614C271.71 158.813 271.963 160.5 272.928 161.632C274.346 163.303 276.852 163.211 276.879 163.211L276.911 163.912L276.787 163.918Z" fill="white"/>
<path d="M270.266 112.688L269.608 112.213C276.502 102.582 287.788 103.207 287.901 103.213L287.847 104.021C287.74 104.016 276.906 103.428 270.266 112.688Z" fill="#5E3B3B"/>
<path d="M314.203 135.471L303.963 122.611L277.014 131.488L257.611 124.756C257.611 124.756 270.26 109.346 276.475 105.471C281.326 102.447 283.18 102.981 286.29 102.593C294.374 101.59 306.685 103.067 308.868 104.027C311.773 107.945 314.3 112.984 314.16 118.579L314.203 135.471Z" fill="#724E4E"/>
<path d="M272.928 150.502C298.799 159.352 311.735 150.589 311.735 150.589C311.735 150.589 314.015 123.133 313.557 118.255C313.557 118.255 278.609 116.53 273.51 125.321C268.245 134.462 272.928 150.502 272.928 150.502Z" fill="#724E4E"/>
<path d="M293.076 97.9684C290.257 100.065 285.449 100.043 282.986 99.429C280.383 98.7768 277.677 97.1707 281.223 89.7274C283.665 84.6017 283.46 83.2596 284.457 80.969C285.115 79.4598 286.791 78.4142 289.847 78.716C295.086 79.2281 302.292 91.1126 293.076 97.9684Z" fill="#FFB284"/>
<path d="M286.069 100.216C285.815 100.218 285.561 100.205 285.309 100.178L285.4 99.3748C287.104 99.5364 288.813 99.1187 290.251 98.1891L290.715 98.852C289.338 99.7634 287.719 100.239 286.069 100.216Z" fill="white"/>
<path d="M289.631 87.7438C286.397 86.9676 283.993 85.0812 283.126 82.6881C281.956 79.4543 284.381 76.1018 284.484 75.9617L285.136 76.4414C285.044 76.5653 282.862 79.589 283.886 82.4133C284.662 84.5692 286.877 86.2454 289.814 86.9568L289.631 87.7438Z" fill="#20A090"/>
<path d="M314.639 118.174C309.427 121.284 297.047 120.535 292.606 110.186C289.334 102.56 290.94 93.9199 291.706 91.5161L290.358 87.2474C290.358 87.2474 283.567 84.283 285.276 76.4678C285.276 76.4678 286.025 77.0607 288.321 76.872C289.598 76.7588 292.978 75.503 296.314 76.2199C299.327 76.6079 305.617 78.6938 306.253 88.6595C306.792 96.8789 313.626 97.7629 316.865 101.056C323.382 107.659 320.52 114.654 314.639 118.174Z" fill="#20A090"/>
<path d="M292.914 88.9027C292.914 89.345 292.783 89.7775 292.537 90.1453C292.291 90.5132 291.942 90.7999 291.533 90.9692C291.124 91.1385 290.674 91.1828 290.241 91.0964C289.807 91.0101 289.408 90.7971 289.095 90.4843C288.782 90.1715 288.569 89.7729 288.483 89.339C288.397 88.9051 288.441 88.4554 288.61 88.0467C288.78 87.638 289.066 87.2886 289.434 87.0429C289.802 86.7971 290.235 86.6659 290.677 86.6659C291.27 86.6659 291.839 86.9015 292.259 87.321C292.678 87.7405 292.914 88.3094 292.914 88.9027Z" fill="#FFB284"/>
<path d="M321.56 104.509C321.021 102.353 319.7 100.37 317.598 98.5428C316.489 97.68 315.278 96.956 313.992 96.3869C310.581 94.673 307.05 92.8997 306.22 87.1758C304.819 77.4095 298.394 76.0297 295.694 75.8895H295.629C293.193 75.5662 290.816 76.2992 289.237 76.7789L289 76.0081C290.617 75.5069 293.129 74.7415 295.737 75.0865C298.632 75.2374 305.536 76.7034 307.023 87.0626C307.789 92.3715 311.13 94.0693 314.359 95.6863C315.705 96.2906 316.973 97.0581 318.132 97.9715C320.358 99.9119 321.781 102.057 322.347 104.353L321.56 104.509Z" fill="#24786D"/>
<path d="M312.85 123.811L311.489 150.58L312.028 150.607L313.388 123.838L312.85 123.811Z" fill="white"/>
<path d="M315.907 146.11L315.454 145.436C315.529 145.388 322.908 140.262 322.946 128.345H323.754C323.716 140.709 315.982 146.056 315.907 146.11Z" fill="white"/>
<path d="M260.467 142.095C247.025 142.095 240.056 124.351 239.986 124.163L239.905 123.947L245.348 117.156L250.846 120.39L249.768 122.007L249.105 121.549L249.72 120.649L245.569 118.212L240.853 124.093C241.716 126.173 248.976 142.666 262.143 141.194C268.401 140.499 273.316 133.514 276.334 127.779L277.051 128.157C273.936 134.085 268.843 141.259 262.229 141.998C261.644 142.065 261.056 142.098 260.467 142.095Z" fill="white"/>
<path d="M248.387 122.562L245.116 127.357L245.784 127.812L249.055 123.017L248.387 122.562Z" fill="white"/>
<path d="M321.474 269.439H4.41431V270.517H321.474V269.439Z" fill="#24786D"/>
<path d="M307.358 233.785C307.315 233.661 303.138 221.189 299.101 217.783L299.64 217.163C303.849 220.721 307.967 233.009 308.14 233.532L307.358 233.785Z" fill="white"/>
<path d="M303.445 218.22C303.413 218.161 299.996 212.426 297.382 210.399L297.872 209.758C300.61 211.881 304 217.562 304.14 217.805L303.445 218.22Z" fill="white"/>
<path d="M254.808 245.336C254.808 245.228 254.63 234.233 249.337 230.541L249.801 229.878C255.433 233.807 255.611 244.861 255.616 245.325L254.808 245.336Z" fill="white"/>
<path d="M208.444 45.5839L207.727 45.9574L217.252 64.2471L217.969 63.8736L208.444 45.5839Z" fill="white"/>
<path d="M215.101 49.2913L214.381 49.6585L217.96 56.6789L218.68 56.3117L215.101 49.2913Z" fill="white"/>
<path d="M233.993 176.347H159.436V182.265H233.993V176.347Z" fill="white"/>
<path d="M233.993 188.026H159.436V193.944H233.993V188.026Z" fill="white"/>
</g>
<defs>
<clipPath id="clip0_14_758">
<rect width="349" height="270.034" fill="white" transform="translate(0 0.48291)"/>
</clipPath>
</defs>
</svg>
